<svg xmlns="http://www.w3.org/2000/svg" viewBox="0 0 64 64" role="img" aria-label="CG monogram">
    <rect width="64" height="64" rx="14" fill="#111827"/>
    <path
            d="M31.5 42.5c-2.6 2.2-5.8 3.5-9.4 3.5C13.8 46 7.5 39.7 7.5 31.8S13.8 17.5 22.1 17.5c3.7 0 7.1 1.3 9.6 3.7l-4.1 4.5c-1.5-1.4-3.2-2.1-5.3-2.1-4.7 0-8.1 3.5-8.1 8.2s3.4 8.2 8.1 8.2c2.1 0 3.9-.7 5.4-2.1l3.8 4.6z"
            fill="#F9FAFB"
    />
    <path
            d="M43.1 46c-8.3 0-14.4-6.1-14.4-14.2s6.2-14.3 14.5-14.3c4.5 0 8.1 1.5 10.8 4.4l-4.2 4.3c-1.7-1.7-3.7-2.6-6.3-2.6-4.7 0-8.1 3.5-8.1 8.2s3.3 8.3 8.2 8.3c1.8 0 3.5-.4 4.8-1.3v-4h-6.1v-5.5h12.2v12.6C51.6 44.5 47.7 46 43.1 46z"
            fill="#F9FAFB"
    />
</svg>