<svg xmlns="http://www.w3.org/2000/svg" width="1200" height="630" viewBox="0 0 1200 630" role="img" aria-label="Christopher Goehrs — Senior Software Engineer &amp; Technical Lead">
  <defs>
    <linearGradient id="bg" x1="0" y1="0" x2="1" y2="1">
      <stop offset="0" stop-color="#0f172a"/>
      <stop offset="0.55" stop-color="#111827"/>
      <stop offset="1" stop-color="#0b1120"/>
    </linearGradient>
    <linearGradient id="accent" x1="0" y1="0" x2="1" y2="0">
      <stop offset="0" stop-color="#67e8f9"/>
      <stop offset="1" stop-color="#a7f3d0"/>
    </linearGradient>
    <radialGradient id="glow" cx="0.85" cy="0.1" r="0.6">
      <stop offset="0" stop-color="#67e8f9" stop-opacity="0.20"/>
      <stop offset="1" stop-color="#67e8f9" stop-opacity="0"/>
    </radialGradient>
  </defs>

  <!-- Background -->
  <rect width="1200" height="630" fill="url(#bg)"/>
  <rect width="1200" height="630" fill="url(#glow)"/>
  <!-- Subtle inset frame -->
  <rect x="24" y="24" width="1152" height="582" rx="28" fill="none" stroke="#e5edf8" stroke-opacity="0.10" stroke-width="2"/>

  <!-- CG monogram tile (reused from favicon.svg), scaled 64 -> 132 -->
  <g transform="translate(96, 96) scale(2.0625)">
    <rect width="64" height="64" rx="14" fill="#1d2a45" stroke="#67e8f9" stroke-opacity="0.35" stroke-width="1.5"/>
    <path d="M31.5 42.5c-2.6 2.2-5.8 3.5-9.4 3.5C13.8 46 7.5 39.7 7.5 31.8S13.8 17.5 22.1 17.5c3.7 0 7.1 1.3 9.6 3.7l-4.1 4.5c-1.5-1.4-3.2-2.1-5.3-2.1-4.7 0-8.1 3.5-8.1 8.2s3.4 8.2 8.1 8.2c2.1 0 3.9-.7 5.4-2.1l3.8 4.6z" fill="#F9FAFB"/>
    <path d="M43.1 46c-8.3 0-14.4-6.1-14.4-14.2s6.2-14.3 14.5-14.3c4.5 0 8.1 1.5 10.8 4.4l-4.2 4.3c-1.7-1.7-3.7-2.6-6.3-2.6-4.7 0-8.1 3.5-8.1 8.2s3.3 8.3 8.2 8.3c1.8 0 3.5-.4 4.8-1.3v-4h-6.1v-5.5h12.2v12.6C51.6 44.5 47.7 46 43.1 46z" fill="#F9FAFB"/>
  </g>

  <!-- Eyebrow -->
  <text x="98" y="332" font-family="Segoe UI, Arial, Helvetica, sans-serif" font-size="30" font-weight="600" letter-spacing="6" fill="#a7b5c9">PORTFOLIO</text>

  <!-- Name -->
  <text x="96" y="416" font-family="Segoe UI, Arial, Helvetica, sans-serif" font-size="88" font-weight="800" fill="#f8fafc">Christopher Goehrs</text>

  <!-- Role -->
  <text x="98" y="476" font-family="Segoe UI, Arial, Helvetica, sans-serif" font-size="40" font-weight="600" fill="#67e8f9">Senior Software Engineer &amp; Technical Lead</text>

  <!-- Accent rule -->
  <rect x="98" y="510" width="240" height="8" rx="4" fill="url(#accent)"/>

  <!-- Domain -->
  <text x="98" y="566" font-family="Segoe UI, Arial, Helvetica, sans-serif" font-size="30" font-weight="600" fill="#a7b5c9">christophergoehrs.com</text>
</svg>
